<svg xmlns="http://www.w3.org/2000/svg" viewBox="0 0 1000 520" role="img" aria-label="FHA loan requirements in Florida: 580 credit score, 3.5 percent down payment">
<rect width="1000" height="520" fill="#fbfdfa"/>
<text x="50" y="64" font-family="Helvetica,Arial,sans-serif" font-size="32" font-weight="700" fill="#0f3d2e">FHA Loan Requirements (Florida)</text><rect x="50" y="120" width="450" height="96" rx="14" fill="#eef5ee" stroke="#d3e3d3"/><circle cx="98" cy="168" r="26" fill="#2f6f4e"/><path d="M86 168 l9 9 l18 -20" stroke="#fff" stroke-width="5" fill="none" stroke-linecap="round" stroke-linejoin="round"/><text x="142" y="164" font-family="Helvetica,Arial,sans-serif" font-size="26" font-weight="700" fill="#16a34a">580+</text><text x="142" y="192" font-family="Helvetica,Arial,sans-serif" font-size="16" fill="#557065">credit score for 3.5% down</text><rect x="520" y="120" width="450" height="96" rx="14" fill="#eef5ee" stroke="#d3e3d3"/><circle cx="568" cy="168" r="26" fill="#2f6f4e"/><path d="M556 168 l9 9 l18 -20" stroke="#fff" stroke-width="5" fill="none" stroke-linecap="round" stroke-linejoin="round"/><text x="612" y="164" font-family="Helvetica,Arial,sans-serif" font-size="26" font-weight="700" fill="#16a34a">3.5%</text><text x="612" y="192" font-family="Helvetica,Arial,sans-serif" font-size="16" fill="#557065">minimum down payment</text><rect x="50" y="240" width="450" height="96" rx="14" fill="#eef5ee" stroke="#d3e3d3"/><circle cx="98" cy="288" r="26" fill="#2f6f4e"/><path d="M86 288 l9 9 l18 -20" stroke="#fff" stroke-width="5" fill="none" stroke-linecap="round" stroke-linejoin="round"/><text x="142" y="284" font-family="Helvetica,Arial,sans-serif" font-size="26" font-weight="700" fill="#16a34a">43–50%</text><text x="142" y="312" font-family="Helvetica,Arial,sans-serif" font-size="16" fill="#557065">max debt-to-income ratio</text><rect x="520" y="240" width="450" height="96" rx="14" fill="#eef5ee" stroke="#d3e3d3"/><circle cx="568" cy="288" r="26" fill="#2f6f4e"/><path d="M556 288 l9 9 l18 -20" stroke="#fff" stroke-width="5" fill="none" stroke-linecap="round" stroke-linejoin="round"/><text x="612" y="284" font-family="Helvetica,Arial,sans-serif" font-size="26" font-weight="700" fill="#16a34a">2 yrs</text><text x="612" y="312" font-family="Helvetica,Arial,sans-serif" font-size="16" fill="#557065">steady employment history</text><rect x="50" y="360" width="450" height="96" rx="14" fill="#eef5ee" stroke="#d3e3d3"/><circle cx="98" cy="408" r="26" fill="#2f6f4e"/><path d="M86 408 l9 9 l18 -20" stroke="#fff" stroke-width="5" fill="none" stroke-linecap="round" stroke-linejoin="round"/><text x="142" y="404" font-family="Helvetica,Arial,sans-serif" font-size="26" font-weight="700" fill="#16a34a">Primary</text><text x="142" y="432" font-family="Helvetica,Arial,sans-serif" font-size="16" fill="#557065">residence, 1–4 units</text><rect x="520" y="360" width="450" height="96" rx="14" fill="#eef5ee" stroke="#d3e3d3"/><circle cx="568" cy="408" r="26" fill="#2f6f4e"/><path d="M556 408 l9 9 l18 -20" stroke="#fff" stroke-width="5" fill="none" stroke-linecap="round" stroke-linejoin="round"/><text x="612" y="404" font-family="Helvetica,Arial,sans-serif" font-size="26" font-weight="700" fill="#16a34a">FHA</text><text x="612" y="432" font-family="Helvetica,Arial,sans-serif" font-size="16" fill="#557065">appraisal required</text></svg>